<svg width="403" height="243" viewBox="0 0 403 243" fill="none" xmlns="http://www.w3.org/2000/svg">
<path fill-rule="evenodd" clip-rule="evenodd" d="M181.087 232.999C149.433 233.124 119.736 224.548 93.5332 212.556C66.5821 200.221 45.4087 183.797 30.7164 164.179C13.7502 141.524 -8.61465 116.264 3.40402 92.2094C15.4083 68.184 57.709 59.5489 89.6547 46.2198C118.864 34.0326 146.808 16.7406 181.087 18.0726C214.777 19.3817 234.929 42.9417 265.18 53.0401C305.027 66.3418 361.267 61.1985 385.564 86.3311C410.272 111.888 407.879 149.852 383.706 175.642C360.384 200.523 308.117 200.48 267.897 211.865C238.818 220.097 212.618 232.874 181.087 232.999Z" fill="#FFEDDD"/>
<path d="M62.273 76.149V88.3329C67.3893 88.3329 72.2961 90.3653 75.9138 93.9831C79.5316 97.6009 81.5641 102.508 81.5641 107.624C81.5641 112.74 79.5316 117.647 75.9138 121.265C72.2961 124.883 67.3893 126.915 62.273 126.915V139.099H125.223V76.149H62.273Z" fill="#FFE1C5"/>
<path d="M62.273 122.854C70.6842 122.854 77.5028 116.035 77.5028 107.624C77.5028 99.2128 70.6842 92.3941 62.273 92.3941C53.8618 92.3941 47.0432 99.2128 47.0432 107.624C47.0432 116.035 53.8618 122.854 62.273 122.854Z" fill="#FFE1C5"/>
<path d="M293.089 122.871L268.383 107.643V225.401H293.089V122.871Z" fill="#FFE1C5"/>
<path d="M230.478 225.401H255.184V99.5068L230.478 84.2784V225.401Z" fill="#FFE1C5"/>
<path d="M217.279 76.1423L93.7479 0V68.7033H133.345V147.898H93.7479V225.401H217.279V76.1423Z" fill="#FFE1C5"/>
<path d="M306.288 131.007V225.401H319.149L354.008 160.421L306.288 131.007Z" fill="#FFE1C5"/>
<path d="M354.284 180.352C333.781 195.678 328 222.603 328 222.603C328 222.603 355.461 224.68 375.963 209.354C396.466 194.029 402.247 167.104 402.247 167.104C402.247 167.104 374.786 165.026 354.284 180.352Z" fill="#FFB877"/>
<path d="M328.016 222.343C328.016 222.343 327.715 222.175 327.171 221.841C326.736 221.573 326.14 221.201 325.42 220.725C318.977 216.48 302.287 203.993 295.441 184.727C286.876 160.605 296.99 134.991 296.99 134.991C296.99 134.991 319.051 147.393 328.423 169.67C328.831 170.63 329.209 171.609 329.565 172.606C337.017 193.595 330.329 215.713 328.466 221.104C328.186 221.912 328.016 222.343 328.016 222.343Z" fill="#E98F39"/>
<path d="M328.116 223.104L327.802 222.877C327.577 222.715 305.326 206.367 299.608 181.588C293.89 156.808 306.729 132.364 306.86 132.12L307.043 131.777L307.357 132.005C307.581 132.167 329.833 148.515 335.55 173.294C341.268 198.073 328.429 222.518 328.299 222.762L328.116 223.104ZM307.277 132.791C305.733 135.87 294.98 158.523 300.268 181.436C305.555 204.349 325.146 219.999 327.882 222.09C329.425 219.012 340.178 196.359 334.891 173.446C329.604 150.533 310.013 134.883 307.277 132.791Z" fill="#FFB877"/>
<path opacity="0.1" d="M328.466 221.104C327.966 221.395 327.529 221.64 327.171 221.841C326.38 222.272 325.942 222.49 325.942 222.49C325.942 222.49 325.734 221.866 325.42 220.725C323.684 214.482 318.714 192.726 327.031 172.743C327.469 171.696 327.933 170.672 328.423 169.67C328.831 170.63 329.209 171.609 329.565 172.606C337.017 193.595 330.329 215.713 328.466 221.104Z" fill="black"/>
<path d="M362.842 187.523C353.01 211.157 328.323 223.362 328.323 223.362C328.323 223.362 319.578 197.249 329.41 173.615C339.243 149.981 363.929 137.776 363.929 137.776C363.929 137.776 372.674 163.889 362.842 187.523Z" fill="#E98F39"/>
<path d="M363.429 138.688L328.251 222.547L328.875 222.809L364.053 138.949L363.429 138.688Z" fill="#FFB877"/>
<path d="M398.513 230.306C398.513 233.475 380.282 236.374 350.139 238.599C344.659 239.002 338.784 239.383 332.556 239.742C327.172 240.051 321.53 240.342 315.631 240.615C309.914 240.874 303.979 241.115 297.825 241.338C278.387 242.045 256.9 242.553 234.073 242.807C228.535 242.867 222.92 242.915 217.231 242.95C211.308 242.983 205.317 243 199.257 243C89.2094 243 0 237.318 0 230.306C0 223.293 89.2094 217.611 199.257 217.611C246.632 217.611 290.143 218.666 324.339 220.422C325.598 220.488 326.844 220.552 328.077 220.615C328.084 220.619 328.093 220.621 328.101 220.621C371.176 222.951 398.513 226.424 398.513 230.306Z" fill="#FFB877"/>
<path opacity="0.15" d="M398.513 230.306C398.513 233.475 380.282 236.374 350.139 238.599C344.659 239.002 338.784 239.383 332.556 239.742C327.172 240.051 321.53 240.342 315.631 240.615C309.914 240.874 303.979 241.115 297.825 241.338C278.387 242.045 256.9 242.553 234.073 242.807C228.535 242.867 222.92 242.915 217.231 242.95C211.308 242.983 205.317 243 199.257 243C89.2094 243 0 237.318 0 230.306C0 223.293 89.2094 217.611 199.257 217.611C246.632 217.611 290.143 218.666 324.339 220.422C325.598 220.488 326.844 220.552 328.077 220.615C328.084 220.619 328.093 220.621 328.101 220.621C371.176 222.951 398.513 226.424 398.513 230.306Z" fill="black"/>
<path d="M383.199 228.071C383.199 230.721 366.202 233.145 338.102 235.006C332.995 235.341 327.515 235.659 321.711 235.96C316.692 236.218 311.433 236.46 305.933 236.688C300.603 236.908 295.069 237.11 289.332 237.294C271.209 237.886 251.177 238.309 229.896 238.522C224.734 238.573 219.501 238.613 214.195 238.641C208.672 238.671 203.087 238.686 197.439 238.685C94.8445 238.685 11.6762 233.933 11.6762 228.071C11.6762 222.21 94.8445 217.458 197.439 217.458C220.125 217.458 241.859 217.691 261.956 218.118H262.007C281.014 218.521 298.555 219.096 314.049 219.81C315.223 219.864 316.385 219.917 317.535 219.969C317.541 219.974 317.55 219.977 317.558 219.976C324.655 220.321 331.296 220.693 337.415 221.093C337.482 221.096 337.55 221.103 337.618 221.106C366.009 222.971 383.199 225.405 383.199 228.071Z" fill="#FFB877"/>
<path opacity="0.1" d="M337.415 221.093C334.9 237.443 319.044 231.963 299.858 231.963C279.589 231.963 263.039 238.079 262.007 218.118C281.014 218.521 298.555 219.096 314.049 219.81C315.223 219.864 316.385 219.917 317.535 219.969C317.541 219.974 317.55 219.977 317.558 219.976C324.655 220.321 331.296 220.693 337.415 221.093Z" fill="black"/>
<path d="M107.379 216.119C107.379 222.013 103.875 224.071 99.5526 224.071C99.4525 224.071 99.3524 224.07 99.253 224.068C99.0527 224.063 98.8539 224.054 98.658 224.04C94.7566 223.764 91.7261 221.601 91.7261 216.119C91.7261 210.447 98.9742 203.289 99.5202 202.758L99.5209 202.757C99.5418 202.736 99.5526 202.726 99.5526 202.726C99.5526 202.726 107.379 210.225 107.379 216.119Z" fill="#E98F39"/>
<path d="M99.2674 223.169L102.13 219.17L99.2602 223.609L99.253 224.068C99.0528 224.063 98.854 224.054 98.658 224.04L98.9663 218.144L98.9642 218.098L98.9692 218.09L98.9988 217.532L96.1217 213.083L99.0074 217.114L99.0146 217.232L99.2473 212.777L96.7844 208.179L99.2775 211.996L99.5203 202.758L99.521 202.726V202.757L99.4807 210.041L101.933 207.153L99.4706 210.669L99.4057 214.658L101.696 210.829L99.3964 215.245L99.3604 217.463L102.683 212.134L99.3474 218.237L99.2674 223.169Z" fill="#FFB877"/>
<path d="M261.953 211.997C261.953 189.567 278.923 171.384 299.858 171.384C320.792 171.384 337.763 189.567 337.763 211.997C337.763 234.426 320.792 227.903 299.858 227.903C278.923 227.903 261.953 234.426 261.953 211.997Z" fill="#FFB877"/>
<path d="M51.9111 185.239H51.2343V230.989H51.9111V185.239Z" fill="#FFB877"/>
<path d="M51.5727 191.709C55.1459 191.709 58.0425 188.812 58.0425 185.239C58.0425 181.666 55.1459 178.769 51.5727 178.769C47.9996 178.769 45.103 181.666 45.103 185.239C45.103 188.812 47.9996 191.709 51.5727 191.709Z" fill="#FFB877"/>
<path d="M51.5727 213.436C51.5727 213.436 50.6485 193.557 31.7013 195.868L51.5727 213.436Z" fill="#FFB877"/>
<path d="M239.959 192.767C240.128 193.364 240.316 193.957 240.517 194.546C239.614 193.658 238.727 192.746 237.824 191.863C238.186 191.976 238.548 192.089 238.889 192.222C239.262 192.37 239.62 192.552 239.959 192.767ZM235.582 189.8C230.257 185.17 224.086 181.585 218.629 177.096C221.609 178.562 224.508 180.27 227.383 181.909C230.794 183.852 234.245 185.719 237.737 187.511C237.169 188.403 236.437 189.179 235.582 189.8ZM237.86 178.141C237.945 178.054 238.03 177.967 238.115 177.879C238.117 178.537 238.122 179.152 238.13 179.71C237.653 179.552 237.177 179.39 236.703 179.223C237.111 178.887 237.497 178.525 237.86 178.141ZM190.95 190.676C193.145 188.198 195.051 185.478 196.633 182.57C198.747 186.264 202.182 188.927 205.105 192.02C200.396 191.399 195.681 190.886 190.95 190.676Z" fill="url(#paint0_linear_8_337)"/>
<path d="M39.6911 224.918C39.6911 230.813 36.1874 232.871 31.8646 232.871C31.7645 232.871 31.6644 232.869 31.565 232.867C31.3647 232.863 31.1659 232.854 30.97 232.84C27.0686 232.564 24.0381 230.4 24.0381 224.918C24.0381 219.246 31.2862 212.088 31.8322 211.557L31.8329 211.557C31.8538 211.536 31.8646 211.526 31.8646 211.526C31.8646 211.526 39.6911 219.024 39.6911 224.918Z" fill="#E98F39"/>
<path d="M31.5794 231.969L34.442 227.97L31.5722 232.408L31.565 232.867C31.3647 232.863 31.1659 232.854 30.97 232.84L31.2783 226.943L31.2762 226.897L31.2812 226.889L31.3107 226.332L28.4337 221.882L31.3194 225.914L31.3266 226.032L31.5592 221.577L29.0964 216.979L31.5895 220.795L31.8322 211.557L31.833 211.526V211.557L31.7926 218.841L34.2447 215.953L31.7825 219.468L31.7177 223.457L34.0077 219.629L31.7084 224.044L31.6723 226.262L34.9953 220.933L31.6594 227.036L31.5794 231.969Z" fill="#FFB877"/>
<path d="M43.6588 178.02C45.5279 178.02 47.0432 176.504 47.0432 174.635C47.0432 172.766 45.5279 171.251 43.6588 171.251C41.7896 171.251 40.2744 172.766 40.2744 174.635C40.2744 176.504 41.7896 178.02 43.6588 178.02Z" fill="#E98F39"/>
<path d="M261.272 127.264C261.272 127.264 273.55 124.546 274.903 135.376C276.257 146.206 268.383 148.25 268.383 148.25L263.396 149.59L244.105 144.514L246.813 136.73L261.272 127.264Z" fill="#3E3E3E"/>
<path d="M256.847 127.862C266.011 127.862 273.439 120.433 273.439 111.27C273.439 102.107 266.011 94.6788 256.847 94.6788C247.684 94.6788 240.256 102.107 240.256 111.27C240.256 120.433 247.684 127.862 256.847 127.862Z" fill="#3E3E3E"/>
<path d="M198.546 145.723L201.917 146.401L213.379 163.349L208.322 164.027L198.546 145.723Z" fill="#3E3E3E"/>
<path d="M117.006 214.486C117.915 217.477 119.035 220.4 120.356 223.234C124.155 222.439 127.893 221.374 131.541 220.047C131.653 220.006 129.449 217.123 129.217 216.887C128.344 215.999 127.214 214.96 126.059 214.458C124.895 213.951 123.461 214.338 122.214 214.402C120.48 214.49 118.744 214.518 117.006 214.486Z" fill="#FBBEBE"/>
<path d="M126.079 219.013C124.179 218.419 123.024 216.507 122.251 214.663C121.478 212.819 120.855 210.808 119.389 209.455C118.827 209.482 118.375 209.938 118.097 210.43C117.819 210.921 117.654 211.476 117.333 211.94C116.721 212.823 115.647 213.25 114.878 213.999C114.072 214.784 113.632 215.896 112.798 216.65C111.75 217.598 110.269 217.834 108.894 218.147C106.768 218.633 104.715 219.394 102.786 220.412C102.075 220.84 101.316 221.181 100.523 221.426C99.6511 221.594 98.7581 221.624 97.8768 221.515L91.7994 221.081C91.2585 221.012 90.7097 221.036 90.1771 221.152C88.9277 221.503 88.152 222.898 88.2438 224.199C88.3356 225.5 89.1449 226.665 90.1671 227.469C91.225 228.226 92.3921 228.817 93.6282 229.222C98.9222 231.221 104.373 232.778 109.923 233.877L109.926 235.08C113.786 236.978 118.03 237.966 122.331 237.968C122.649 237.992 122.968 237.937 123.259 237.807C123.686 237.576 123.883 237.077 124.041 236.617C125.499 232.353 126.353 227.905 126.576 223.405C126.684 222.264 126.595 221.112 126.314 220.001C125.983 218.907 127.123 219.367 126.068 218.939" fill="#3E3E3E"/>
<path d="M242.639 196.103C224.621 197.181 206.812 191.907 188.77 191.344C186.527 191.273 184.26 191.279 182.069 191.771C179.753 192.291 177.593 193.339 175.438 194.342C165.762 198.844 155.752 202.573 145.754 206.297L134.268 210.574C131.973 211.429 129.595 212.297 127.152 212.148C126.057 212.081 124.713 211.915 124.097 212.828C122.228 215.596 123.111 219.663 124.346 222.77C124.746 223.778 125.424 224.866 126.498 224.981C127.254 225.062 127.957 224.624 128.692 224.427C130.782 223.867 132.866 225.273 135.018 225.502C137.676 225.785 140.144 224.271 142.653 223.344C146.814 221.806 151.363 221.854 155.737 221.126C163.07 219.905 169.868 216.5 176.221 212.62C178.641 211.143 181.089 209.56 183.868 209.02C187.064 208.398 190.346 209.222 193.479 210.108C200.95 212.222 208.305 214.727 215.514 217.611C219.31 219.13 223.078 220.759 227.027 221.81C235.57 224.059 244.606 223.532 252.829 220.305C255.714 219.166 258.847 217.151 259.013 214.039C259.107 212.265 257.731 210.702 256.812 209.185C256.222 208.212 255.632 207.238 254.99 206.3C251.883 201.757 248.112 195.775 242.639 196.103Z" fill="#3E3E3E"/>
<path opacity="0.1" d="M242.639 196.103C224.621 197.181 206.812 191.907 188.77 191.344C186.527 191.273 184.26 191.279 182.069 191.771C179.753 192.291 177.593 193.339 175.438 194.342C165.762 198.844 155.752 202.573 145.754 206.297L134.268 210.574C131.973 211.429 129.595 212.297 127.152 212.148C126.057 212.081 124.713 211.915 124.097 212.828C122.228 215.596 123.111 219.663 124.346 222.77C124.746 223.778 125.424 224.866 126.498 224.981C127.254 225.062 127.957 224.624 128.692 224.427C130.782 223.867 132.866 225.273 135.018 225.502C137.676 225.785 140.144 224.271 142.653 223.344C146.814 221.806 151.363 221.854 155.737 221.126C163.07 219.905 169.868 216.5 176.221 212.62C178.641 211.143 181.089 209.56 183.868 209.02C187.064 208.398 190.346 209.222 193.479 210.108C200.95 212.222 208.305 214.727 215.514 217.611C219.31 219.13 223.078 220.759 227.027 221.81C235.57 224.059 244.606 223.532 252.829 220.305C255.714 219.166 258.847 217.151 259.013 214.039C259.107 212.265 257.731 210.702 256.812 209.185C256.222 208.212 255.632 207.238 254.99 206.3C251.883 201.757 248.112 195.775 242.639 196.103Z" fill="black"/>
<path d="M151.601 215.363C154.421 216.326 157.266 217.211 160.136 218.018C161.743 215.38 164.748 213.545 165.433 210.53C165.475 210.398 165.476 210.257 165.433 210.126C165.36 209.997 165.247 209.895 165.11 209.837C163.055 208.698 160.772 208.029 158.427 207.878C156.575 207.761 155.729 209.695 154.89 211.054C154.55 211.604 152.355 215.621 151.601 215.363Z" fill="#FBBEBE"/>
<path d="M155.554 213.438C153.888 213.089 152.258 212.193 151.408 210.711C151.009 210.017 150.586 209.081 149.79 209.134C149.052 209.182 148.712 210.063 148.546 210.788C147.924 213.503 147.312 216.24 146.22 218.801C145.128 221.361 143.512 223.765 141.233 225.351C140.188 226.078 139.023 226.621 138.001 227.381C137.083 228.064 136.283 228.92 135.269 229.448C134.59 229.759 133.89 230.02 133.174 230.23C132.12 230.597 131.112 231.087 130.173 231.69C129.347 232.17 128.647 232.839 128.13 233.642C127.876 234.047 127.727 234.51 127.698 234.987C127.668 235.464 127.759 235.941 127.961 236.375C128.179 236.731 128.47 237.038 128.815 237.274C129.159 237.51 129.55 237.67 129.961 237.744C130.783 237.886 131.62 237.907 132.447 237.807C135.732 237.565 139.014 237.272 142.295 236.98C143.683 236.89 145.063 236.698 146.423 236.406C147.142 236.232 147.846 236.003 148.562 235.818C149.789 235.502 151.047 235.318 152.314 235.272C152.682 235.24 153.052 235.274 153.408 235.371C154.168 235.62 154.708 236.376 155.492 236.53C155.996 236.578 156.504 236.51 156.977 236.331C159.341 235.685 161.825 235.702 164.271 235.57C165.349 235.512 166.611 235.307 167.105 234.342C167.722 233.139 166.699 231.794 166.292 230.504C166.089 229.679 165.975 228.835 165.954 227.986C165.766 225.888 165.15 223.852 164.145 222.001C163.308 220.465 162.166 218.768 162.754 217.119C162.953 216.56 163.35 216.04 163.311 215.447C163.137 212.843 157.064 213.754 155.554 213.438Z" fill="#3E3E3E"/>
<path d="M215.618 167.195C212.425 165.788 209.867 163.247 208.439 160.064C208.138 159.38 207.891 158.665 207.601 157.975C206.656 155.68 205.186 153.64 203.31 152.016C202.841 151.618 202.29 151.238 201.717 151.342C201.167 151.442 200.734 151.986 200.546 152.597C200.384 153.225 200.344 153.879 200.427 154.522C200.587 156.039 200.848 157.544 201.208 159.026L202.081 163.005C202.189 163.617 202.371 164.213 202.624 164.781C203.001 165.45 203.498 166.045 204.09 166.534C204.888 167.269 205.698 167.984 206.522 168.679C207.666 169.777 209.157 170.44 210.739 170.554C214.317 171.218 217.956 172.174 220.976 174.509C220.942 174.483 220.963 171.84 220.911 171.537C220.772 170.737 220.665 169.944 220.144 169.402C218.973 168.186 217.044 167.829 215.618 167.195Z" fill="#FBBEBE"/>
<path opacity="0.1" d="M215.618 167.195C212.425 165.788 209.867 163.247 208.439 160.064C208.138 159.38 207.891 158.665 207.601 157.975C206.656 155.68 205.186 153.64 203.31 152.016C202.841 151.618 202.29 151.238 201.717 151.342C201.167 151.442 200.734 151.986 200.546 152.597C200.384 153.225 200.344 153.879 200.427 154.522C200.587 156.039 200.848 157.544 201.208 159.026L202.081 163.005C202.189 163.617 202.371 164.213 202.624 164.781C203.001 165.45 203.498 166.045 204.09 166.534C204.888 167.269 205.698 167.984 206.522 168.679C207.666 169.777 209.157 170.44 210.739 170.554C214.317 171.218 217.956 172.174 220.976 174.509C220.942 174.483 220.963 171.84 220.911 171.537C220.772 170.737 220.665 169.944 220.144 169.402C218.973 168.186 217.044 167.829 215.618 167.195Z" fill="black"/>
<path d="M252.314 136.74C254.734 136.74 256.697 134.767 256.697 132.334C256.697 129.9 254.734 127.927 252.314 127.927C249.894 127.927 247.932 129.9 247.932 132.334C247.932 134.767 249.894 136.74 252.314 136.74Z" fill="#3E3E3E"/>
<path d="M249.601 129.672C248.412 129.54 247.09 129.442 246.137 130.17C245.632 130.617 245.227 131.167 244.952 131.783C244.036 133.504 243.132 135.257 242.671 137.152C242.28 138.761 242.215 140.442 241.73 142.025C240.832 144.96 238.529 147.438 238.266 150.498C238.149 151.867 238.378 153.47 237.379 154.408C237.132 154.616 236.869 154.803 236.591 154.967C235.899 155.431 235.311 156.035 234.866 156.741C234.492 157.335 234.204 158.017 233.642 158.435C232.75 159.095 231.271 159.028 230.831 160.05C230.38 161.1 231.526 162.268 231.26 163.381C231.044 164.287 230.034 164.702 229.339 165.317C228.447 166.106 228.04 167.296 227.669 168.43C226.203 168.707 224.694 168.664 223.246 168.303C221.799 167.942 220.446 167.272 219.282 166.338C220.506 169.352 220.532 172.677 220.585 175.931C220.603 176.987 220.57 178.171 219.816 178.906C223.305 178.981 226.708 179.926 230.113 180.696C231.601 181.032 233.216 181.324 234.604 180.688C235.382 180.271 236.079 179.717 236.66 179.052C238.513 177.173 240.456 175.124 240.909 172.519C241.163 171.059 240.917 169.561 240.984 168.08C241.067 166.246 241.628 164.473 242.108 162.702C243.091 159.075 243.75 155.369 244.077 151.626C244.278 149.316 246.273 147.457 247.323 145.393C249.306 141.496 251.332 137.438 251.481 133.063C251.531 131.6 251.048 129.832 249.601 129.672Z" fill="#3E3E3E"/>
<path opacity="0.1" d="M249.601 129.672C248.412 129.54 247.09 129.442 246.137 130.17C245.632 130.617 245.227 131.167 244.952 131.783C244.036 133.504 243.132 135.257 242.671 137.152C242.28 138.761 242.215 140.442 241.73 142.025C240.832 144.96 238.529 147.438 238.266 150.498C238.149 151.867 238.378 153.47 237.379 154.408C237.132 154.616 236.869 154.803 236.591 154.967C235.899 155.431 235.311 156.035 234.866 156.741C234.492 157.335 234.204 158.017 233.642 158.435C232.75 159.095 231.271 159.028 230.831 160.05C230.38 161.1 231.526 162.268 231.26 163.381C231.044 164.287 230.034 164.702 229.339 165.317C228.447 166.106 228.04 167.296 227.669 168.43C226.203 168.707 224.694 168.664 223.246 168.303C221.799 167.942 220.446 167.272 219.282 166.338C220.506 169.352 220.532 172.677 220.585 175.931C220.603 176.987 220.57 178.171 219.816 178.906C223.305 178.981 226.708 179.926 230.113 180.696C231.601 181.032 233.216 181.324 234.604 180.688C235.382 180.271 236.079 179.717 236.66 179.052C238.513 177.173 240.456 175.124 240.909 172.519C241.163 171.059 240.917 169.561 240.984 168.08C241.067 166.246 241.628 164.473 242.108 162.702C243.091 159.075 243.75 155.369 244.077 151.626C244.278 149.316 246.273 147.457 247.323 145.393C249.306 141.496 251.332 137.438 251.481 133.063C251.531 131.6 251.048 129.832 249.601 129.672Z" fill="black"/>
<path d="M245.497 199.897C241.744 198.112 238.998 194.783 235.964 191.933C230.172 186.494 223.088 182.644 216.997 177.544C212.96 174.164 209.35 170.228 204.913 167.398C201.006 164.91 196.577 163.358 191.972 162.863C191.444 162.773 190.903 162.8 190.387 162.942C189.805 163.199 189.298 163.6 188.914 164.107C186.948 166.325 185.201 168.727 183.697 171.28C175.977 184.385 165.012 195.404 155.928 207.592C155.637 207.878 155.465 208.263 155.445 208.671C155.425 209.078 155.558 209.478 155.819 209.792L157.667 213.413C158.701 215.44 160.358 217.8 162.587 217.397C163.606 217.213 164.418 216.464 165.168 215.747L173.464 207.816L182.162 199.502C187.258 194.63 192.442 189.645 195.764 183.414C198.36 187.917 202.967 190.864 206.128 194.987C207.33 196.555 208.312 198.279 209.385 199.939C211.105 202.6 213.062 205.098 215.015 207.591L224.992 220.326C226.353 222.062 227.751 223.834 229.612 225.012C231.975 226.508 234.849 226.902 237.63 227.151C241.378 227.487 245.142 227.623 248.904 227.559C251.773 227.51 254.731 227.322 257.305 226.048C259.879 224.774 261.994 222.158 261.86 219.277C261.79 217.778 261.139 216.373 260.422 215.057C256.858 208.518 252.2 203.086 245.497 199.897Z" fill="#3E3E3E"/>
<path d="M255.011 138.774C256.873 138.774 258.382 137.256 258.382 135.384C258.382 133.512 256.873 131.995 255.011 131.995C253.149 131.995 251.64 133.512 251.64 135.384C251.64 137.256 253.149 138.774 255.011 138.774Z" fill="#3E3E3E"/>
<path d="M254.266 132.838C255.087 134.289 255.088 136.095 254.636 137.701C254.184 139.308 253.32 140.761 252.466 142.194C251.625 143.603 250.775 145.025 249.648 146.215C254.851 146.464 259.895 144.423 264.487 141.95C268.181 139.96 271.868 137.504 273.839 133.786C272.686 134.132 271.415 133.79 270.395 133.149C269.404 132.458 268.515 131.631 267.756 130.691L265.143 127.752C264.53 127.112 263.991 126.405 263.537 125.643C262.971 124.602 262.731 123.414 262.847 122.235C261.809 123.321 260.649 124.283 259.39 125.103C257.525 126.317 255.468 127.198 253.598 128.405C252.935 128.834 251.461 129.522 251.84 130.389C252.21 131.234 253.74 131.909 254.266 132.838Z" fill="#FBBEBE"/>
<path opacity="0.1" d="M254.266 132.838C255.087 134.289 255.088 136.095 254.636 137.701C254.184 139.308 253.32 140.761 252.466 142.194C251.625 143.603 250.775 145.025 249.648 146.215C254.851 146.464 259.895 144.423 264.487 141.95C268.181 139.96 271.868 137.504 273.839 133.786C272.686 134.132 271.415 133.79 270.395 133.149C269.404 132.458 268.515 131.631 267.756 130.691L265.143 127.752C264.53 127.112 263.991 126.405 263.537 125.643C262.971 124.602 262.731 123.414 262.847 122.235C261.809 123.321 260.649 124.283 259.39 125.103C257.525 126.317 255.468 127.198 253.598 128.405C252.935 128.834 251.461 129.522 251.84 130.389C252.21 131.234 253.74 131.909 254.266 132.838Z" fill="black"/>
<path d="M254.337 133.351C253.359 134.995 253.149 136.937 254.337 138.435C254.485 138.622 255.034 139.779 255.271 139.79C255.5 139.771 255.713 139.663 255.864 139.489C257.128 138.334 258.054 136.861 259.164 135.556C260.274 134.251 261.675 133.062 263.362 132.799C265.399 132.482 267.366 133.561 269.148 134.602C269.889 135.035 270.657 135.493 271.124 136.216C271.499 136.894 271.72 137.647 271.772 138.421C272.388 143.059 272.374 147.756 272.36 152.436C272.349 155.819 272.336 159.226 271.697 162.547C271.366 164.263 270.869 165.948 270.634 167.68C270.462 169.209 270.392 170.748 270.425 172.287L270.42 178.727C270.377 179.91 270.461 181.094 270.67 182.258C270.976 183.67 271.643 184.972 272.09 186.345C272.55 187.923 272.865 189.54 273.03 191.176L273.912 197.845C274.189 199.945 274.395 202.243 273.125 203.933C272.55 204.698 271.796 205.309 271.214 206.068C269.034 208.907 269.733 212.958 268.824 216.426C268.106 218.966 266.631 221.227 264.595 222.908C263.037 224.231 261.025 225.273 259.02 224.901C256.312 224.398 254.685 221.574 253.947 218.907C253.209 216.239 252.94 213.336 251.34 211.082C250.034 209.242 248.01 208.084 246.181 206.771C244.351 205.457 242.563 203.763 242.164 201.539C241.991 200.567 242.099 199.566 241.996 198.584C241.85 197.34 241.373 196.158 240.614 195.161C239.855 194.165 238.842 193.39 237.682 192.919C236.295 192.38 234.584 192.188 233.803 190.916C235.818 189.78 237.156 187.681 237.861 185.469C238.566 183.256 238.71 180.909 238.848 178.59L239.311 170.84C239.518 167.377 239.612 163.945 241.137 160.833C241.819 159.441 242.667 158.139 243.377 156.762C244.316 154.83 245.118 152.834 245.776 150.789C246.882 147.614 247.988 144.437 248.974 141.222C249.443 139.69 249.895 138.129 250.732 136.765C251.569 135.4 252.77 133.645 254.337 133.351Z" fill="#E98F39"/>
<path d="M237.128 183.697L239.178 183.771L239.615 180.672C239.672 180.052 239.818 179.444 240.049 178.865C240.387 178.254 240.781 177.676 241.228 177.138C243.246 174.287 243.099 170.501 243.599 167.037C244.266 162.418 246.195 158.093 248.104 153.838L252.085 144.965C252.879 143.459 253.259 141.769 253.186 140.068C253.221 138.696 253.627 133.705 253.663 132.334C253.676 131.826 252.543 132.108 252.314 131.656C251.815 130.671 251.132 133.342 250.2 133.928C249.267 134.514 248.753 135.576 248.357 136.608C247.499 138.843 246.974 141.193 246.175 143.45C245.376 145.707 244.258 147.924 242.459 149.496C241.642 150.21 240.7 150.776 239.928 151.539C237.452 153.989 237.211 157.856 237.123 161.348C237.072 163.423 236.671 183.697 237.128 183.697Z" fill="#3E3E3E"/>
<path d="M266.65 129.651C264.658 130.434 263.566 132.594 263.006 134.669C262.446 136.744 262.218 138.956 261.148 140.818C258.648 145.171 252.271 146.439 250.507 151.143C249.93 152.681 249.955 154.37 249.799 156.007C249.479 159.377 248.371 162.633 248.044 166.003C247.79 168.613 248.009 171.243 248.228 173.857L250.456 200.436C250.778 204.276 250.77 208.4 249.789 212.124C252.045 212.564 254.391 211.975 256.484 211.021C258.578 210.067 260.488 208.756 262.503 207.645C265.968 205.733 269.788 204.379 272.822 201.833C273.371 201.405 273.842 200.885 274.213 200.296C274.821 199.245 274.87 197.974 275.16 196.794C275.422 195.852 275.756 194.932 276.159 194.041C277.269 191.362 278.237 188.627 279.057 185.846C279.621 184 280.067 182.121 280.391 180.218C280.634 178.703 280.765 177.173 280.896 175.644C281.058 173.25 281.534 170.888 282.311 168.618C284.249 163.205 285.347 157.528 285.566 151.782C285.631 150.952 285.575 150.117 285.398 149.304C285.134 148.295 284.539 147.413 284.05 146.493C283.124 144.748 282.568 142.828 281.694 141.057C279.719 137.054 276.231 134.019 272.577 131.476C270.783 130.227 268.682 128.851 266.65 129.651Z" fill="#3E3E3E"/>
<path d="M220.058 173.011C218.516 172.113 216.975 171.146 215.814 169.786C215.258 169.135 214.799 168.404 214.233 167.76C212.858 166.195 210.909 165.225 208.895 164.718C206.88 164.21 204.785 164.133 202.708 164.116C201.319 164.104 199.895 164.124 198.594 164.615C197.294 165.106 196.121 166.165 195.869 167.539C195.567 169.192 196.647 170.803 197.944 171.864C199.15 172.849 200.57 173.538 202.09 173.877C203.33 174.094 204.582 174.241 205.839 174.316C213.218 175.089 219.801 179.105 226.268 182.762C231.947 185.974 237.737 188.977 243.637 191.771C243.871 190.004 243.968 188.222 243.928 186.44C243.898 185.109 243.832 183.08 242.575 182.299C241.11 181.388 238.699 181.179 237.047 180.638C233.245 179.391 229.531 177.889 225.932 176.141C223.936 175.172 221.978 174.129 220.058 173.011Z" fill="#FBBEBE"/>
<path d="M252.314 131.317C259.575 131.317 265.461 125.398 265.461 118.097C265.461 110.796 259.575 104.878 252.314 104.878C245.053 104.878 239.167 110.796 239.167 118.097C239.167 125.398 245.053 131.317 252.314 131.317Z" fill="#FBBEBE"/>
<path d="M270.408 144.638C269.234 146.008 268.646 147.771 267.857 149.396C266.234 152.739 263.688 155.608 262.412 159.101C261.067 162.785 261.112 167.167 258.475 170.061C258.017 170.565 257.464 171.05 257.331 171.719C257.252 172.117 257.334 172.542 257.197 172.923C256.819 173.974 255.098 174.027 254.777 175.097C254.683 175.411 254.736 175.757 254.62 176.063C254.356 176.755 253.442 176.861 252.831 177.275C251.554 178.141 251.812 180.154 250.901 181.402C250.181 182.389 248.822 182.72 247.616 182.552C246.409 182.385 245.305 181.807 244.206 181.279C243.828 181.066 243.411 180.935 242.979 180.894C242.47 180.911 241.977 181.08 241.563 181.377C239.135 182.921 237.995 185.98 238.012 188.869C238.029 191.758 239.021 194.542 240.038 197.244C240.177 197.7 240.404 198.124 240.708 198.492C241.513 199.343 242.915 199.206 243.985 198.732C245.054 198.258 246.025 197.513 247.175 197.305C249.21 196.936 251.198 198.334 253.262 198.219C254.774 198.135 256.112 197.256 257.368 196.405C259.374 195.048 261.416 193.656 262.89 191.73C263.793 190.551 264.454 189.206 265.241 187.945C266.253 186.399 267.362 184.917 268.561 183.511L276.142 174.232C277.964 172.249 279.218 169.812 279.773 167.177C280.494 164.704 281.219 162.202 281.344 159.628C281.447 157.51 281.139 155.394 280.794 153.301C280.453 151.242 280.066 149.159 279.161 147.279C277.514 143.859 273.504 141.028 270.408 144.638Z" fill="#3E3E3E"/>
<path d="M274.821 106.016C283.985 106.016 291.413 98.5881 291.413 89.4248C291.413 80.2616 283.985 72.8334 274.821 72.8334C265.658 72.8334 258.23 80.2616 258.23 89.4248C258.23 98.5881 265.658 106.016 274.821 106.016Z" fill="#3E3E3E"/>
<path d="M289.133 103.164C286.985 104.716 284.497 105.731 281.877 106.124C279.257 106.518 276.58 106.278 274.072 105.425C271.563 104.572 269.295 103.131 267.458 101.222C265.621 99.3125 264.267 96.9911 263.511 94.4517C263.797 96.7274 264.552 98.9191 265.728 100.888C266.904 102.858 268.475 104.562 270.343 105.893C272.211 107.224 274.334 108.154 276.579 108.623C278.825 109.092 281.143 109.091 283.387 108.619C285.632 108.147 287.754 107.215 289.62 105.882C291.486 104.548 293.056 102.842 294.229 100.871C295.403 98.9008 296.155 96.7082 296.439 94.4321C296.722 92.1561 296.531 89.846 295.876 87.6476C296.248 90.6011 295.818 93.6001 294.631 96.3301C293.445 99.0601 291.545 101.42 289.133 103.164Z" fill="#3E3E3E"/>
<path d="M261.272 126.202C267.991 126.202 273.439 120.755 273.439 114.035C273.439 107.316 267.991 101.868 261.272 101.868C254.552 101.868 249.105 107.316 249.105 114.035C249.105 120.755 254.552 126.202 261.272 126.202Z" fill="#3E3E3E"/>
<path d="M251.04 117.907C256.996 117.907 261.825 114.131 261.825 109.473C261.825 104.815 256.996 101.039 251.04 101.039C245.084 101.039 240.256 104.815 240.256 109.473C240.256 114.131 245.084 117.907 251.04 117.907Z" fill="#3E3E3E"/>
<path d="M255.183 124.654C255.908 124.064 255.779 122.705 254.895 121.617C254.01 120.529 252.705 120.126 251.98 120.715C251.255 121.305 251.384 122.665 252.269 123.752C253.153 124.84 254.458 125.244 255.183 124.654Z" fill="#FBBEBE"/>
<path d="M241.74 230.333C241.74 236.228 238.236 238.286 233.913 238.286C233.813 238.286 233.713 238.284 233.614 238.282C233.413 238.278 233.215 238.269 233.019 238.255C229.117 237.979 226.087 235.815 226.087 230.333C226.087 224.661 233.335 217.503 233.881 216.972L233.882 216.972C233.903 216.951 233.913 216.941 233.913 216.941C233.913 216.941 241.74 224.439 241.74 230.333Z" fill="#E98F39"/>
<path d="M233.628 237.384L236.491 233.385L233.621 237.823L233.614 238.282C233.413 238.278 233.215 238.269 233.019 238.255L233.327 232.358L233.325 232.312L233.33 232.304L233.359 231.747L230.482 227.297L233.368 231.329L233.375 231.447L233.608 226.992L231.145 222.394L233.638 226.21L233.881 216.972L233.882 216.941V216.972L233.841 224.256L236.293 221.368L233.831 224.883L233.766 228.872L236.056 225.044L233.757 229.459L233.721 231.677L237.044 226.348L233.708 232.451L233.628 237.384Z" fill="#FFB877"/>
<defs>
<linearGradient id="paint0_linear_8_337" x1="215.734" y1="194.546" x2="215.734" y2="177.096" gradientUnits="userSpaceOnUse">
<stop stop-color="#808080" stop-opacity="0.25"/>
<stop offset="0.53514" stop-color="#808080" stop-opacity="0.12"/>
<stop offset="1" stop-color="#808080" stop-opacity="0.1"/>
</linearGradient>
</defs>
</svg>
